<?xml version="1.0" encoding="utf-8" standalone="no"?>
<!DOCTYPE svg PUBLIC "-//W3C//DTD SVG 1.1//EN"
  "http://www.w3.org/Graphics/SVG/1.1/DTD/svg11.dtd">
<svg xmlns:xlink="http://www.w3.org/1999/xlink" width="556.192625pt" height="303.51895pt" viewBox="0 0 556.192625 303.51895" xmlns="http://www.w3.org/2000/svg" version="1.1">
 <metadata>
  <rdf:RDF xmlns:dc="http://purl.org/dc/elements/1.1/" xmlns:cc="http://creativecommons.org/ns#" xmlns:rdf="http://www.w3.org/1999/02/22-rdf-syntax-ns#">
   <cc:Work>
    <dc:type rdf:resource="http://purl.org/dc/dcmitype/StillImage"/>
    <dc:date>2026-05-22T18:00:05.665851</dc:date>
    <dc:format>image/svg+xml</dc:format>
    <dc:creator>
     <cc:Agent>
      <dc:title>Matplotlib v3.10.9, https://matplotlib.org/</dc:title>
     </cc:Agent>
    </dc:creator>
   </cc:Work>
  </rdf:RDF>
 </metadata>
 <defs>
  <style type="text/css">*{stroke-linejoin: round; stroke-linecap: butt}</style>
 </defs>
 <g id="figure_1">
  <g id="patch_1">
   <path d="M -0 303.51895
L 556.192625 303.51895
L 556.192625 0
L -0 0
z
" style="fill: #ffffff"/>
  </g>
  <g id="axes_1">
   <g id="patch_2">
    <path d="M 44.675125 270.948125
L 548.992625 270.948125
L 548.992625 22.318125
L 44.675125 22.318125
z
" style="fill: #ffffff"/>
   </g>
   <g id="matplotlib.axis_1">
    <g id="xtick_1">
     <g id="line2d_1">
      <defs>
       <path id="m229964dbd2" d="M 0 0
L 0 3.5
" style="stroke: #000000; stroke-width: 0.8"/>
      </defs>
      <g>
       <use xlink:href="#m229964dbd2" x="67.598648" y="270.948125" style="stroke: #000000; stroke-width: 0.8"/>
      </g>
     </g>
     <g id="text_1">
      <!-- Round1 -->
      <g transform="translate(50.877273 284.63475) scale(0.088 -0.088)">
       <defs>
        <path id="DejaVuSans-52" d="M 2841 2188
Q 3044 2119 3236 1894
Q 3428 1669 3622 1275
L 4263 0
L 3584 0
L 2988 1197
Q 2756 1666 2539 1819
Q 2322 1972 1947 1972
L 1259 1972
L 1259 0
L 628 0
L 628 4666
L 2053 4666
Q 2853 4666 3247 4331
Q 3641 3997 3641 3322
Q 3641 2881 3436 2590
Q 3231 2300 2841 2188
z
M 1259 4147
L 1259 2491
L 2053 2491
Q 2509 2491 2742 2702
Q 2975 2913 2975 3322
Q 2975 3731 2742 3939
Q 2509 4147 2053 4147
L 1259 4147
z
" transform="scale(0.015625)"/>
        <path id="DejaVuSans-6f" d="M 1959 3097
Q 1497 3097 1228 2736
Q 959 2375 959 1747
Q 959 1119 1226 758
Q 1494 397 1959 397
Q 2419 397 2687 759
Q 2956 1122 2956 1747
Q 2956 2369 2687 2733
Q 2419 3097 1959 3097
z
M 1959 3584
Q 2709 3584 3137 3096
Q 3566 2609 3566 1747
Q 3566 888 3137 398
Q 2709 -91 1959 -91
Q 1206 -91 779 398
Q 353 888 353 1747
Q 353 2609 779 3096
Q 1206 3584 1959 3584
z
" transform="scale(0.015625)"/>
        <path id="DejaVuSans-75" d="M 544 1381
L 544 3500
L 1119 3500
L 1119 1403
Q 1119 906 1312 657
Q 1506 409 1894 409
Q 2359 409 2629 706
Q 2900 1003 2900 1516
L 2900 3500
L 3475 3500
L 3475 0
L 2900 0
L 2900 538
Q 2691 219 2414 64
Q 2138 -91 1772 -91
Q 1169 -91 856 284
Q 544 659 544 1381
z
M 1991 3584
L 1991 3584
z
" transform="scale(0.015625)"/>
        <path id="DejaVuSans-6e" d="M 3513 2113
L 3513 0
L 2938 0
L 2938 2094
Q 2938 2591 2744 2837
Q 2550 3084 2163 3084
Q 1697 3084 1428 2787
Q 1159 2491 1159 1978
L 1159 0
L 581 0
L 581 3500
L 1159 3500
L 1159 2956
Q 1366 3272 1645 3428
Q 1925 3584 2291 3584
Q 2894 3584 3203 3211
Q 3513 2838 3513 2113
z
" transform="scale(0.015625)"/>
        <path id="DejaVuSans-64" d="M 2906 2969
L 2906 4863
L 3481 4863
L 3481 0
L 2906 0
L 2906 525
Q 2725 213 2448 61
Q 2172 -91 1784 -91
Q 1150 -91 751 415
Q 353 922 353 1747
Q 353 2572 751 3078
Q 1150 3584 1784 3584
Q 2172 3584 2448 3432
Q 2725 3281 2906 2969
z
M 947 1747
Q 947 1113 1208 752
Q 1469 391 1925 391
Q 2381 391 2643 752
Q 2906 1113 2906 1747
Q 2906 2381 2643 2742
Q 2381 3103 1925 3103
Q 1469 3103 1208 2742
Q 947 2381 947 1747
z
" transform="scale(0.015625)"/>
        <path id="DejaVuSans-31" d="M 794 531
L 1825 531
L 1825 4091
L 703 3866
L 703 4441
L 1819 4666
L 2450 4666
L 2450 531
L 3481 531
L 3481 0
L 794 0
L 794 531
z
" transform="scale(0.015625)"/>
       </defs>
       <use xlink:href="#DejaVuSans-52"/>
       <use xlink:href="#DejaVuSans-6f" transform="translate(64.982422 0)"/>
       <use xlink:href="#DejaVuSans-75" transform="translate(126.164062 0)"/>
       <use xlink:href="#DejaVuSans-6e" transform="translate(189.542969 0)"/>
       <use xlink:href="#DejaVuSans-64" transform="translate(252.921875 0)"/>
       <use xlink:href="#DejaVuSans-31" transform="translate(316.398438 0)"/>
      </g>
      <!-- original -->
      <g transform="translate(51.152273 294.488825) scale(0.088 -0.088)">
       <defs>
        <path id="DejaVuSans-72" d="M 2631 2963
Q 2534 3019 2420 3045
Q 2306 3072 2169 3072
Q 1681 3072 1420 2755
Q 1159 2438 1159 1844
L 1159 0
L 581 0
L 581 3500
L 1159 3500
L 1159 2956
Q 1341 3275 1631 3429
Q 1922 3584 2338 3584
Q 2397 3584 2469 3576
Q 2541 3569 2628 3553
L 2631 2963
z
" transform="scale(0.015625)"/>
        <path id="DejaVuSans-69" d="M 603 3500
L 1178 3500
L 1178 0
L 603 0
L 603 3500
z
M 603 4863
L 1178 4863
L 1178 4134
L 603 4134
L 603 4863
z
" transform="scale(0.015625)"/>
        <path id="DejaVuSans-67" d="M 2906 1791
Q 2906 2416 2648 2759
Q 2391 3103 1925 3103
Q 1463 3103 1205 2759
Q 947 2416 947 1791
Q 947 1169 1205 825
Q 1463 481 1925 481
Q 2391 481 2648 825
Q 2906 1169 2906 1791
z
M 3481 434
Q 3481 -459 3084 -895
Q 2688 -1331 1869 -1331
Q 1566 -1331 1297 -1286
Q 1028 -1241 775 -1147
L 775 -588
Q 1028 -725 1275 -790
Q 1522 -856 1778 -856
Q 2344 -856 2625 -561
Q 2906 -266 2906 331
L 2906 616
Q 2728 306 2450 153
Q 2172 0 1784 0
Q 1141 0 747 490
Q 353 981 353 1791
Q 353 2603 747 3093
Q 1141 3584 1784 3584
Q 2172 3584 2450 3431
Q 2728 3278 2906 2969
L 2906 3500
L 3481 3500
L 3481 434
z
" transform="scale(0.015625)"/>
        <path id="DejaVuSans-61" d="M 2194 1759
Q 1497 1759 1228 1600
Q 959 1441 959 1056
Q 959 750 1161 570
Q 1363 391 1709 391
Q 2188 391 2477 730
Q 2766 1069 2766 1631
L 2766 1759
L 2194 1759
z
M 3341 1997
L 3341 0
L 2766 0
L 2766 531
Q 2569 213 2275 61
Q 1981 -91 1556 -91
Q 1019 -91 701 211
Q 384 513 384 1019
Q 384 1609 779 1909
Q 1175 2209 1959 2209
L 2766 2209
L 2766 2266
Q 2766 2663 2505 2880
Q 2244 3097 1772 3097
Q 1472 3097 1187 3025
Q 903 2953 641 2809
L 641 3341
Q 956 3463 1253 3523
Q 1550 3584 1831 3584
Q 2591 3584 2966 3190
Q 3341 2797 3341 1997
z
" transform="scale(0.015625)"/>
        <path id="DejaVuSans-6c" d="M 603 4863
L 1178 4863
L 1178 0
L 603 0
L 603 4863
z
" transform="scale(0.015625)"/>
       </defs>
       <use xlink:href="#DejaVuSans-6f"/>
       <use xlink:href="#DejaVuSans-72" transform="translate(61.181641 0)"/>
       <use xlink:href="#DejaVuSans-69" transform="translate(102.294922 0)"/>
       <use xlink:href="#DejaVuSans-67" transform="translate(130.078125 0)"/>
       <use xlink:href="#DejaVuSans-69" transform="translate(193.554688 0)"/>
       <use xlink:href="#DejaVuSans-6e" transform="translate(221.337891 0)"/>
       <use xlink:href="#DejaVuSans-61" transform="translate(284.716797 0)"/>
       <use xlink:href="#DejaVuSans-6c" transform="translate(345.996094 0)"/>
      </g>
     </g>
    </g>
    <g id="xtick_2">
     <g id="line2d_2">
      <g>
       <use xlink:href="#m229964dbd2" x="124.907455" y="270.948125" style="stroke: #000000; stroke-width: 0.8"/>
      </g>
     </g>
     <g id="text_2">
      <!-- Round1 -->
      <g transform="translate(108.18608 284.63475) scale(0.088 -0.088)">
       <use xlink:href="#DejaVuSans-52"/>
       <use xlink:href="#DejaVuSans-6f" transform="translate(64.982422 0)"/>
       <use xlink:href="#DejaVuSans-75" transform="translate(126.164062 0)"/>
       <use xlink:href="#DejaVuSans-6e" transform="translate(189.542969 0)"/>
       <use xlink:href="#DejaVuSans-64" transform="translate(252.921875 0)"/>
       <use xlink:href="#DejaVuSans-31" transform="translate(316.398438 0)"/>
      </g>
      <!-- Step7 -->
      <g transform="translate(112.089017 294.488825) scale(0.088 -0.088)">
       <defs>
        <path id="DejaVuSans-53" d="M 3425 4513
L 3425 3897
Q 3066 4069 2747 4153
Q 2428 4238 2131 4238
Q 1616 4238 1336 4038
Q 1056 3838 1056 3469
Q 1056 3159 1242 3001
Q 1428 2844 1947 2747
L 2328 2669
Q 3034 2534 3370 2195
Q 3706 1856 3706 1288
Q 3706 609 3251 259
Q 2797 -91 1919 -91
Q 1588 -91 1214 -16
Q 841 59 441 206
L 441 856
Q 825 641 1194 531
Q 1563 422 1919 422
Q 2459 422 2753 634
Q 3047 847 3047 1241
Q 3047 1584 2836 1778
Q 2625 1972 2144 2069
L 1759 2144
Q 1053 2284 737 2584
Q 422 2884 422 3419
Q 422 4038 858 4394
Q 1294 4750 2059 4750
Q 2388 4750 2728 4690
Q 3069 4631 3425 4513
z
" transform="scale(0.015625)"/>
        <path id="DejaVuSans-74" d="M 1172 4494
L 1172 3500
L 2356 3500
L 2356 3053
L 1172 3053
L 1172 1153
Q 1172 725 1289 603
Q 1406 481 1766 481
L 2356 481
L 2356 0
L 1766 0
Q 1100 0 847 248
Q 594 497 594 1153
L 594 3053
L 172 3053
L 172 3500
L 594 3500
L 594 4494
L 1172 4494
z
" transform="scale(0.015625)"/>
        <path id="DejaVuSans-65" d="M 3597 1894
L 3597 1613
L 953 1613
Q 991 1019 1311 708
Q 1631 397 2203 397
Q 2534 397 2845 478
Q 3156 559 3463 722
L 3463 178
Q 3153 47 2828 -22
Q 2503 -91 2169 -91
Q 1331 -91 842 396
Q 353 884 353 1716
Q 353 2575 817 3079
Q 1281 3584 2069 3584
Q 2775 3584 3186 3129
Q 3597 2675 3597 1894
z
M 3022 2063
Q 3016 2534 2758 2815
Q 2500 3097 2075 3097
Q 1594 3097 1305 2825
Q 1016 2553 972 2059
L 3022 2063
z
" transform="scale(0.015625)"/>
        <path id="DejaVuSans-70" d="M 1159 525
L 1159 -1331
L 581 -1331
L 581 3500
L 1159 3500
L 1159 2969
Q 1341 3281 1617 3432
Q 1894 3584 2278 3584
Q 2916 3584 3314 3078
Q 3713 2572 3713 1747
Q 3713 922 3314 415
Q 2916 -91 2278 -91
Q 1894 -91 1617 61
Q 1341 213 1159 525
z
M 3116 1747
Q 3116 2381 2855 2742
Q 2594 3103 2138 3103
Q 1681 3103 1420 2742
Q 1159 2381 1159 1747
Q 1159 1113 1420 752
Q 1681 391 2138 391
Q 2594 391 2855 752
Q 3116 1113 3116 1747
z
" transform="scale(0.015625)"/>
        <path id="DejaVuSans-37" d="M 525 4666
L 3525 4666
L 3525 4397
L 1831 0
L 1172 0
L 2766 4134
L 525 4134
L 525 4666
z
" transform="scale(0.015625)"/>
       </defs>
       <use xlink:href="#DejaVuSans-53"/>
       <use xlink:href="#DejaVuSans-74" transform="translate(63.476562 0)"/>
       <use xlink:href="#DejaVuSans-65" transform="translate(102.685547 0)"/>
       <use xlink:href="#DejaVuSans-70" transform="translate(164.208984 0)"/>
       <use xlink:href="#DejaVuSans-37" transform="translate(227.685547 0)"/>
      </g>
     </g>
    </g>
    <g id="xtick_3">
     <g id="line2d_3">
      <g>
       <use xlink:href="#m229964dbd2" x="182.216261" y="270.948125" style="stroke: #000000; stroke-width: 0.8"/>
      </g>
     </g>
     <g id="text_3">
      <!-- Round2 -->
      <g transform="translate(165.494886 284.63475) scale(0.088 -0.088)">
       <defs>
        <path id="DejaVuSans-32" d="M 1228 531
L 3431 531
L 3431 0
L 469 0
L 469 531
Q 828 903 1448 1529
Q 2069 2156 2228 2338
Q 2531 2678 2651 2914
Q 2772 3150 2772 3378
Q 2772 3750 2511 3984
Q 2250 4219 1831 4219
Q 1534 4219 1204 4116
Q 875 4013 500 3803
L 500 4441
Q 881 4594 1212 4672
Q 1544 4750 1819 4750
Q 2544 4750 2975 4387
Q 3406 4025 3406 3419
Q 3406 3131 3298 2873
Q 3191 2616 2906 2266
Q 2828 2175 2409 1742
Q 1991 1309 1228 531
z
" transform="scale(0.015625)"/>
       </defs>
       <use xlink:href="#DejaVuSans-52"/>
       <use xlink:href="#DejaVuSans-6f" transform="translate(64.982422 0)"/>
       <use xlink:href="#DejaVuSans-75" transform="translate(126.164062 0)"/>
       <use xlink:href="#DejaVuSans-6e" transform="translate(189.542969 0)"/>
       <use xlink:href="#DejaVuSans-64" transform="translate(252.921875 0)"/>
       <use xlink:href="#DejaVuSans-32" transform="translate(316.398438 0)"/>
      </g>
      <!-- best local -->
      <g transform="translate(161.047449 294.488825) scale(0.088 -0.088)">
       <defs>
        <path id="DejaVuSans-62" d="M 3116 1747
Q 3116 2381 2855 2742
Q 2594 3103 2138 3103
Q 1681 3103 1420 2742
Q 1159 2381 1159 1747
Q 1159 1113 1420 752
Q 1681 391 2138 391
Q 2594 391 2855 752
Q 3116 1113 3116 1747
z
M 1159 2969
Q 1341 3281 1617 3432
Q 1894 3584 2278 3584
Q 2916 3584 3314 3078
Q 3713 2572 3713 1747
Q 3713 922 3314 415
Q 2916 -91 2278 -91
Q 1894 -91 1617 61
Q 1341 213 1159 525
L 1159 0
L 581 0
L 581 4863
L 1159 4863
L 1159 2969
z
" transform="scale(0.015625)"/>
        <path id="DejaVuSans-73" d="M 2834 3397
L 2834 2853
Q 2591 2978 2328 3040
Q 2066 3103 1784 3103
Q 1356 3103 1142 2972
Q 928 2841 928 2578
Q 928 2378 1081 2264
Q 1234 2150 1697 2047
L 1894 2003
Q 2506 1872 2764 1633
Q 3022 1394 3022 966
Q 3022 478 2636 193
Q 2250 -91 1575 -91
Q 1294 -91 989 -36
Q 684 19 347 128
L 347 722
Q 666 556 975 473
Q 1284 391 1588 391
Q 1994 391 2212 530
Q 2431 669 2431 922
Q 2431 1156 2273 1281
Q 2116 1406 1581 1522
L 1381 1569
Q 847 1681 609 1914
Q 372 2147 372 2553
Q 372 3047 722 3315
Q 1072 3584 1716 3584
Q 2034 3584 2315 3537
Q 2597 3491 2834 3397
z
" transform="scale(0.015625)"/>
        <path id="DejaVuSans-20" transform="scale(0.015625)"/>
        <path id="DejaVuSans-63" d="M 3122 3366
L 3122 2828
Q 2878 2963 2633 3030
Q 2388 3097 2138 3097
Q 1578 3097 1268 2742
Q 959 2388 959 1747
Q 959 1106 1268 751
Q 1578 397 2138 397
Q 2388 397 2633 464
Q 2878 531 3122 666
L 3122 134
Q 2881 22 2623 -34
Q 2366 -91 2075 -91
Q 1284 -91 818 406
Q 353 903 353 1747
Q 353 2603 823 3093
Q 1294 3584 2113 3584
Q 2378 3584 2631 3529
Q 2884 3475 3122 3366
z
" transform="scale(0.015625)"/>
       </defs>
       <use xlink:href="#DejaVuSans-62"/>
       <use xlink:href="#DejaVuSans-65" transform="translate(63.476562 0)"/>
       <use xlink:href="#DejaVuSans-73" transform="translate(125 0)"/>
       <use xlink:href="#DejaVuSans-74" transform="translate(177.099609 0)"/>
       <use xlink:href="#DejaVuSans-20" transform="translate(216.308594 0)"/>
       <use xlink:href="#DejaVuSans-6c" transform="translate(248.095703 0)"/>
       <use xlink:href="#DejaVuSans-6f" transform="translate(275.878906 0)"/>
       <use xlink:href="#DejaVuSans-63" transform="translate(337.060547 0)"/>
       <use xlink:href="#DejaVuSans-61" transform="translate(392.041016 0)"/>
       <use xlink:href="#DejaVuSans-6c" transform="translate(453.320312 0)"/>
      </g>
     </g>
    </g>
    <g id="xtick_4">
     <g id="line2d_4">
      <g>
       <use xlink:href="#m229964dbd2" x="239.525068" y="270.948125" style="stroke: #000000; stroke-width: 0.8"/>
      </g>
     </g>
     <g id="text_4">
      <!-- Round3 -->
      <g transform="translate(222.803693 284.63475) scale(0.088 -0.088)">
       <defs>
        <path id="DejaVuSans-33" d="M 2597 2516
Q 3050 2419 3304 2112
Q 3559 1806 3559 1356
Q 3559 666 3084 287
Q 2609 -91 1734 -91
Q 1441 -91 1130 -33
Q 819 25 488 141
L 488 750
Q 750 597 1062 519
Q 1375 441 1716 441
Q 2309 441 2620 675
Q 2931 909 2931 1356
Q 2931 1769 2642 2001
Q 2353 2234 1838 2234
L 1294 2234
L 1294 2753
L 1863 2753
Q 2328 2753 2575 2939
Q 2822 3125 2822 3475
Q 2822 3834 2567 4026
Q 2313 4219 1838 4219
Q 1578 4219 1281 4162
Q 984 4106 628 3988
L 628 4550
Q 988 4650 1302 4700
Q 1616 4750 1894 4750
Q 2613 4750 3031 4423
Q 3450 4097 3450 3541
Q 3450 3153 3228 2886
Q 3006 2619 2597 2516
z
" transform="scale(0.015625)"/>
       </defs>
       <use xlink:href="#DejaVuSans-52"/>
       <use xlink:href="#DejaVuSans-6f" transform="translate(64.982422 0)"/>
       <use xlink:href="#DejaVuSans-75" transform="translate(126.164062 0)"/>
       <use xlink:href="#DejaVuSans-6e" transform="translate(189.542969 0)"/>
       <use xlink:href="#DejaVuSans-64" transform="translate(252.921875 0)"/>
       <use xlink:href="#DejaVuSans-33" transform="translate(316.398438 0)"/>
      </g>
      <!-- precision -->
      <g transform="translate(219.677631 294.488825) scale(0.088 -0.088)">
       <use xlink:href="#DejaVuSans-70"/>
       <use xlink:href="#DejaVuSans-72" transform="translate(63.476562 0)"/>
       <use xlink:href="#DejaVuSans-65" transform="translate(102.339844 0)"/>
       <use xlink:href="#DejaVuSans-63" transform="translate(163.863281 0)"/>
       <use xlink:href="#DejaVuSans-69" transform="translate(218.84375 0)"/>
       <use xlink:href="#DejaVuSans-73" transform="translate(246.626953 0)"/>
       <use xlink:href="#DejaVuSans-69" transform="translate(298.726562 0)"/>
       <use xlink:href="#DejaVuSans-6f" transform="translate(326.509766 0)"/>
       <use xlink:href="#DejaVuSans-6e" transform="translate(387.691406 0)"/>
      </g>
     </g>
    </g>
    <g id="xtick_5">
     <g id="line2d_5">
      <g>
       <use xlink:href="#m229964dbd2" x="296.833875" y="270.948125" style="stroke: #000000; stroke-width: 0.8"/>
      </g>
     </g>
     <g id="text_5">
      <!-- Round4 -->
      <g transform="translate(280.1125 284.63475) scale(0.088 -0.088)">
       <defs>
        <path id="DejaVuSans-34" d="M 2419 4116
L 825 1625
L 2419 1625
L 2419 4116
z
M 2253 4666
L 3047 4666
L 3047 1625
L 3713 1625
L 3713 1100
L 3047 1100
L 3047 0
L 2419 0
L 2419 1100
L 313 1100
L 313 1709
L 2253 4666
z
" transform="scale(0.015625)"/>
       </defs>
       <use xlink:href="#DejaVuSans-52"/>
       <use xlink:href="#DejaVuSans-6f" transform="translate(64.982422 0)"/>
       <use xlink:href="#DejaVuSans-75" transform="translate(126.164062 0)"/>
       <use xlink:href="#DejaVuSans-6e" transform="translate(189.542969 0)"/>
       <use xlink:href="#DejaVuSans-64" transform="translate(252.921875 0)"/>
       <use xlink:href="#DejaVuSans-34" transform="translate(316.398438 0)"/>
      </g>
      <!-- residual -->
      <g transform="translate(279.401625 294.488825) scale(0.088 -0.088)">
       <use xlink:href="#DejaVuSans-72"/>
       <use xlink:href="#DejaVuSans-65" transform="translate(38.863281 0)"/>
       <use xlink:href="#DejaVuSans-73" transform="translate(100.386719 0)"/>
       <use xlink:href="#DejaVuSans-69" transform="translate(152.486328 0)"/>
       <use xlink:href="#DejaVuSans-64" transform="translate(180.269531 0)"/>
       <use xlink:href="#DejaVuSans-75" transform="translate(243.746094 0)"/>
       <use xlink:href="#DejaVuSans-61" transform="translate(307.125 0)"/>
       <use xlink:href="#DejaVuSans-6c" transform="translate(368.404297 0)"/>
      </g>
     </g>
    </g>
    <g id="xtick_6">
     <g id="line2d_6">
      <g>
       <use xlink:href="#m229964dbd2" x="354.142682" y="270.948125" style="stroke: #000000; stroke-width: 0.8"/>
      </g>
     </g>
     <g id="text_6">
      <!-- Round5 -->
      <g transform="translate(337.421307 284.63475) scale(0.088 -0.088)">
       <defs>
        <path id="DejaVuSans-35" d="M 691 4666
L 3169 4666
L 3169 4134
L 1269 4134
L 1269 2991
Q 1406 3038 1543 3061
Q 1681 3084 1819 3084
Q 2600 3084 3056 2656
Q 3513 2228 3513 1497
Q 3513 744 3044 326
Q 2575 -91 1722 -91
Q 1428 -91 1123 -41
Q 819 9 494 109
L 494 744
Q 775 591 1075 516
Q 1375 441 1709 441
Q 2250 441 2565 725
Q 2881 1009 2881 1497
Q 2881 1984 2565 2268
Q 2250 2553 1709 2553
Q 1456 2553 1204 2497
Q 953 2441 691 2322
L 691 4666
z
" transform="scale(0.015625)"/>
       </defs>
       <use xlink:href="#DejaVuSans-52"/>
       <use xlink:href="#DejaVuSans-6f" transform="translate(64.982422 0)"/>
       <use xlink:href="#DejaVuSans-75" transform="translate(126.164062 0)"/>
       <use xlink:href="#DejaVuSans-6e" transform="translate(189.542969 0)"/>
       <use xlink:href="#DejaVuSans-64" transform="translate(252.921875 0)"/>
       <use xlink:href="#DejaVuSans-35" transform="translate(316.398438 0)"/>
      </g>
      <!-- flip guard -->
      <g transform="translate(333.153994 294.488825) scale(0.088 -0.088)">
       <defs>
        <path id="DejaVuSans-66" d="M 2375 4863
L 2375 4384
L 1825 4384
Q 1516 4384 1395 4259
Q 1275 4134 1275 3809
L 1275 3500
L 2222 3500
L 2222 3053
L 1275 3053
L 1275 0
L 697 0
L 697 3053
L 147 3053
L 147 3500
L 697 3500
L 697 3744
Q 697 4328 969 4595
Q 1241 4863 1831 4863
L 2375 4863
z
" transform="scale(0.015625)"/>
       </defs>
       <use xlink:href="#DejaVuSans-66"/>
       <use xlink:href="#DejaVuSans-6c" transform="translate(35.205078 0)"/>
       <use xlink:href="#DejaVuSans-69" transform="translate(62.988281 0)"/>
       <use xlink:href="#DejaVuSans-70" transform="translate(90.771484 0)"/>
       <use xlink:href="#DejaVuSans-20" transform="translate(154.248047 0)"/>
       <use xlink:href="#DejaVuSans-67" transform="translate(186.035156 0)"/>
       <use xlink:href="#DejaVuSans-75" transform="translate(249.511719 0)"/>
       <use xlink:href="#DejaVuSans-61" transform="translate(312.890625 0)"/>
       <use xlink:href="#DejaVuSans-72" transform="translate(374.169922 0)"/>
       <use xlink:href="#DejaVuSans-64" transform="translate(413.533203 0)"/>
      </g>
     </g>
    </g>
    <g id="xtick_7">
     <g id="line2d_7">
      <g>
       <use xlink:href="#m229964dbd2" x="411.451489" y="270.948125" style="stroke: #000000; stroke-width: 0.8"/>
      </g>
     </g>
     <g id="text_7">
      <!-- Round6 -->
      <g transform="translate(394.730114 284.63475) scale(0.088 -0.088)">
       <defs>
        <path id="DejaVuSans-36" d="M 2113 2584
Q 1688 2584 1439 2293
Q 1191 2003 1191 1497
Q 1191 994 1439 701
Q 1688 409 2113 409
Q 2538 409 2786 701
Q 3034 994 3034 1497
Q 3034 2003 2786 2293
Q 2538 2584 2113 2584
z
M 3366 4563
L 3366 3988
Q 3128 4100 2886 4159
Q 2644 4219 2406 4219
Q 1781 4219 1451 3797
Q 1122 3375 1075 2522
Q 1259 2794 1537 2939
Q 1816 3084 2150 3084
Q 2853 3084 3261 2657
Q 3669 2231 3669 1497
Q 3669 778 3244 343
Q 2819 -91 2113 -91
Q 1303 -91 875 529
Q 447 1150 447 2328
Q 447 3434 972 4092
Q 1497 4750 2381 4750
Q 2619 4750 2861 4703
Q 3103 4656 3366 4563
z
" transform="scale(0.015625)"/>
       </defs>
       <use xlink:href="#DejaVuSans-52"/>
       <use xlink:href="#DejaVuSans-6f" transform="translate(64.982422 0)"/>
       <use xlink:href="#DejaVuSans-75" transform="translate(126.164062 0)"/>
       <use xlink:href="#DejaVuSans-6e" transform="translate(189.542969 0)"/>
       <use xlink:href="#DejaVuSans-64" transform="translate(252.921875 0)"/>
       <use xlink:href="#DejaVuSans-36" transform="translate(316.398438 0)"/>
      </g>
      <!-- selector -->
      <g transform="translate(393.876926 294.488825) scale(0.088 -0.088)">
       <use xlink:href="#DejaVuSans-73"/>
       <use xlink:href="#DejaVuSans-65" transform="translate(52.099609 0)"/>
       <use xlink:href="#DejaVuSans-6c" transform="translate(113.623047 0)"/>
       <use xlink:href="#DejaVuSans-65" transform="translate(141.40625 0)"/>
       <use xlink:href="#DejaVuSans-63" transform="translate(202.929688 0)"/>
       <use xlink:href="#DejaVuSans-74" transform="translate(257.910156 0)"/>
       <use xlink:href="#DejaVuSans-6f" transform="translate(297.119141 0)"/>
       <use xlink:href="#DejaVuSans-72" transform="translate(358.300781 0)"/>
      </g>
     </g>
    </g>
    <g id="xtick_8">
     <g id="line2d_8">
      <g>
       <use xlink:href="#m229964dbd2" x="468.760295" y="270.948125" style="stroke: #000000; stroke-width: 0.8"/>
      </g>
     </g>
     <g id="text_8">
      <!-- Round7 -->
      <g transform="translate(452.03892 284.63475) scale(0.088 -0.088)">
       <use xlink:href="#DejaVuSans-52"/>
       <use xlink:href="#DejaVuSans-6f" transform="translate(64.982422 0)"/>
       <use xlink:href="#DejaVuSans-75" transform="translate(126.164062 0)"/>
       <use xlink:href="#DejaVuSans-6e" transform="translate(189.542969 0)"/>
       <use xlink:href="#DejaVuSans-64" transform="translate(252.921875 0)"/>
       <use xlink:href="#DejaVuSans-37" transform="translate(316.398438 0)"/>
      </g>
      <!-- exact -->
      <g transform="translate(456.685045 294.488825) scale(0.088 -0.088)">
       <defs>
        <path id="DejaVuSans-78" d="M 3513 3500
L 2247 1797
L 3578 0
L 2900 0
L 1881 1375
L 863 0
L 184 0
L 1544 1831
L 300 3500
L 978 3500
L 1906 2253
L 2834 3500
L 3513 3500
z
" transform="scale(0.015625)"/>
       </defs>
       <use xlink:href="#DejaVuSans-65"/>
       <use xlink:href="#DejaVuSans-78" transform="translate(59.773438 0)"/>
       <use xlink:href="#DejaVuSans-61" transform="translate(118.953125 0)"/>
       <use xlink:href="#DejaVuSans-63" transform="translate(180.232422 0)"/>
       <use xlink:href="#DejaVuSans-74" transform="translate(235.212891 0)"/>
      </g>
     </g>
    </g>
    <g id="xtick_9">
     <g id="line2d_9">
      <g>
       <use xlink:href="#m229964dbd2" x="526.069102" y="270.948125" style="stroke: #000000; stroke-width: 0.8"/>
      </g>
     </g>
     <g id="text_9">
      <!-- Round8 -->
      <g transform="translate(509.347727 284.63475) scale(0.088 -0.088)">
       <defs>
        <path id="DejaVuSans-38" d="M 2034 2216
Q 1584 2216 1326 1975
Q 1069 1734 1069 1313
Q 1069 891 1326 650
Q 1584 409 2034 409
Q 2484 409 2743 651
Q 3003 894 3003 1313
Q 3003 1734 2745 1975
Q 2488 2216 2034 2216
z
M 1403 2484
Q 997 2584 770 2862
Q 544 3141 544 3541
Q 544 4100 942 4425
Q 1341 4750 2034 4750
Q 2731 4750 3128 4425
Q 3525 4100 3525 3541
Q 3525 3141 3298 2862
Q 3072 2584 2669 2484
Q 3125 2378 3379 2068
Q 3634 1759 3634 1313
Q 3634 634 3220 271
Q 2806 -91 2034 -91
Q 1263 -91 848 271
Q 434 634 434 1313
Q 434 1759 690 2068
Q 947 2378 1403 2484
z
M 1172 3481
Q 1172 3119 1398 2916
Q 1625 2713 2034 2713
Q 2441 2713 2670 2916
Q 2900 3119 2900 3481
Q 2900 3844 2670 4047
Q 2441 4250 2034 4250
Q 1625 4250 1398 4047
Q 1172 3844 1172 3481
z
" transform="scale(0.015625)"/>
       </defs>
       <use xlink:href="#DejaVuSans-52"/>
       <use xlink:href="#DejaVuSans-6f" transform="translate(64.982422 0)"/>
       <use xlink:href="#DejaVuSans-75" transform="translate(126.164062 0)"/>
       <use xlink:href="#DejaVuSans-6e" transform="translate(189.542969 0)"/>
       <use xlink:href="#DejaVuSans-64" transform="translate(252.921875 0)"/>
       <use xlink:href="#DejaVuSans-38" transform="translate(316.398438 0)"/>
      </g>
      <!-- one-shot -->
      <g transform="translate(506.795727 294.488825) scale(0.088 -0.088)">
       <defs>
        <path id="DejaVuSans-2d" d="M 313 2009
L 1997 2009
L 1997 1497
L 313 1497
L 313 2009
z
" transform="scale(0.015625)"/>
        <path id="DejaVuSans-68" d="M 3513 2113
L 3513 0
L 2938 0
L 2938 2094
Q 2938 2591 2744 2837
Q 2550 3084 2163 3084
Q 1697 3084 1428 2787
Q 1159 2491 1159 1978
L 1159 0
L 581 0
L 581 4863
L 1159 4863
L 1159 2956
Q 1366 3272 1645 3428
Q 1925 3584 2291 3584
Q 2894 3584 3203 3211
Q 3513 2838 3513 2113
z
" transform="scale(0.015625)"/>
       </defs>
       <use xlink:href="#DejaVuSans-6f"/>
       <use xlink:href="#DejaVuSans-6e" transform="translate(61.181641 0)"/>
       <use xlink:href="#DejaVuSans-65" transform="translate(124.560547 0)"/>
       <use xlink:href="#DejaVuSans-2d" transform="translate(186.083984 0)"/>
       <use xlink:href="#DejaVuSans-73" transform="translate(222.167969 0)"/>
       <use xlink:href="#DejaVuSans-68" transform="translate(274.267578 0)"/>
       <use xlink:href="#DejaVuSans-6f" transform="translate(337.646484 0)"/>
       <use xlink:href="#DejaVuSans-74" transform="translate(398.828125 0)"/>
      </g>
     </g>
    </g>
   </g>
   <g id="matplotlib.axis_2">
    <g id="ytick_1">
     <g id="line2d_10">
      <path d="M 44.675125 270.948125
L 548.992625 270.948125
" clip-path="url(#p2a2490ed89)" style="fill: none; stroke: #d5dbdb; stroke-opacity: 0.75; stroke-width: 0.6; stroke-linecap: square"/>
     </g>
     <g id="line2d_11">
      <defs>
       <path id="m4602b66134" d="M 0 0
L -3.5 0
" style="stroke: #000000; stroke-width: 0.8"/>
      </defs>
      <g>
       <use xlink:href="#m4602b66134" x="44.675125" y="270.948125" style="stroke: #000000; stroke-width: 0.8"/>
      </g>
     </g>
     <g id="text_10">
      <!-- 260 -->
      <g transform="translate(20.878125 274.291437) scale(0.088 -0.088)">
       <defs>
        <path id="DejaVuSans-30" d="M 2034 4250
Q 1547 4250 1301 3770
Q 1056 3291 1056 2328
Q 1056 1369 1301 889
Q 1547 409 2034 409
Q 2525 409 2770 889
Q 3016 1369 3016 2328
Q 3016 3291 2770 3770
Q 2525 4250 2034 4250
z
M 2034 4750
Q 2819 4750 3233 4129
Q 3647 3509 3647 2328
Q 3647 1150 3233 529
Q 2819 -91 2034 -91
Q 1250 -91 836 529
Q 422 1150 422 2328
Q 422 3509 836 4129
Q 1250 4750 2034 4750
z
" transform="scale(0.015625)"/>
       </defs>
       <use xlink:href="#DejaVuSans-32"/>
       <use xlink:href="#DejaVuSans-36" transform="translate(63.623047 0)"/>
       <use xlink:href="#DejaVuSans-30" transform="translate(127.246094 0)"/>
      </g>
     </g>
    </g>
    <g id="ytick_2">
     <g id="line2d_12">
      <path d="M 44.675125 228.080884
L 548.992625 228.080884
" clip-path="url(#p2a2490ed89)" style="fill: none; stroke: #d5dbdb; stroke-opacity: 0.75; stroke-width: 0.6; stroke-linecap: square"/>
     </g>
     <g id="line2d_13">
      <g>
       <use xlink:href="#m4602b66134" x="44.675125" y="228.080884" style="stroke: #000000; stroke-width: 0.8"/>
      </g>
     </g>
     <g id="text_11">
      <!-- 265 -->
      <g transform="translate(20.878125 231.424196) scale(0.088 -0.088)">
       <use xlink:href="#DejaVuSans-32"/>
       <use xlink:href="#DejaVuSans-36" transform="translate(63.623047 0)"/>
       <use xlink:href="#DejaVuSans-35" transform="translate(127.246094 0)"/>
      </g>
     </g>
    </g>
    <g id="ytick_3">
     <g id="line2d_14">
      <path d="M 44.675125 185.213642
L 548.992625 185.213642
" clip-path="url(#p2a2490ed89)" style="fill: none; stroke: #d5dbdb; stroke-opacity: 0.75; stroke-width: 0.6; stroke-linecap: square"/>
     </g>
     <g id="line2d_15">
      <g>
       <use xlink:href="#m4602b66134" x="44.675125" y="185.213642" style="stroke: #000000; stroke-width: 0.8"/>
      </g>
     </g>
     <g id="text_12">
      <!-- 270 -->
      <g transform="translate(20.878125 188.556955) scale(0.088 -0.088)">
       <use xlink:href="#DejaVuSans-32"/>
       <use xlink:href="#DejaVuSans-37" transform="translate(63.623047 0)"/>
       <use xlink:href="#DejaVuSans-30" transform="translate(127.246094 0)"/>
      </g>
     </g>
    </g>
    <g id="ytick_4">
     <g id="line2d_16">
      <path d="M 44.675125 142.346401
L 548.992625 142.346401
" clip-path="url(#p2a2490ed89)" style="fill: none; stroke: #d5dbdb; stroke-opacity: 0.75; stroke-width: 0.6; stroke-linecap: square"/>
     </g>
     <g id="line2d_17">
      <g>
       <use xlink:href="#m4602b66134" x="44.675125" y="142.346401" style="stroke: #000000; stroke-width: 0.8"/>
      </g>
     </g>
     <g id="text_13">
      <!-- 275 -->
      <g transform="translate(20.878125 145.689713) scale(0.088 -0.088)">
       <use xlink:href="#DejaVuSans-32"/>
       <use xlink:href="#DejaVuSans-37" transform="translate(63.623047 0)"/>
       <use xlink:href="#DejaVuSans-35" transform="translate(127.246094 0)"/>
      </g>
     </g>
    </g>
    <g id="ytick_5">
     <g id="line2d_18">
      <path d="M 44.675125 99.479159
L 548.992625 99.479159
" clip-path="url(#p2a2490ed89)" style="fill: none; stroke: #d5dbdb; stroke-opacity: 0.75; stroke-width: 0.6; stroke-linecap: square"/>
     </g>
     <g id="line2d_19">
      <g>
       <use xlink:href="#m4602b66134" x="44.675125" y="99.479159" style="stroke: #000000; stroke-width: 0.8"/>
      </g>
     </g>
     <g id="text_14">
      <!-- 280 -->
      <g transform="translate(20.878125 102.822472) scale(0.088 -0.088)">
       <use xlink:href="#DejaVuSans-32"/>
       <use xlink:href="#DejaVuSans-38" transform="translate(63.623047 0)"/>
       <use xlink:href="#DejaVuSans-30" transform="translate(127.246094 0)"/>
      </g>
     </g>
    </g>
    <g id="ytick_6">
     <g id="line2d_20">
      <path d="M 44.675125 56.611918
L 548.992625 56.611918
" clip-path="url(#p2a2490ed89)" style="fill: none; stroke: #d5dbdb; stroke-opacity: 0.75; stroke-width: 0.6; stroke-linecap: square"/>
     </g>
     <g id="line2d_21">
      <g>
       <use xlink:href="#m4602b66134" x="44.675125" y="56.611918" style="stroke: #000000; stroke-width: 0.8"/>
      </g>
     </g>
     <g id="text_15">
      <!-- 285 -->
      <g transform="translate(20.878125 59.955231) scale(0.088 -0.088)">
       <use xlink:href="#DejaVuSans-32"/>
       <use xlink:href="#DejaVuSans-38" transform="translate(63.623047 0)"/>
       <use xlink:href="#DejaVuSans-35" transform="translate(127.246094 0)"/>
      </g>
     </g>
    </g>
    <g id="text_16">
     <!-- Teacher-test correct predictions -->
     <g transform="translate(14.798438 225.48625) rotate(-90) scale(0.1 -0.1)">
      <defs>
       <path id="DejaVuSans-54" d="M -19 4666
L 3928 4666
L 3928 4134
L 2272 4134
L 2272 0
L 1638 0
L 1638 4134
L -19 4134
L -19 4666
z
" transform="scale(0.015625)"/>
      </defs>
      <use xlink:href="#DejaVuSans-54"/>
      <use xlink:href="#DejaVuSans-65" transform="translate(44.083984 0)"/>
      <use xlink:href="#DejaVuSans-61" transform="translate(105.607422 0)"/>
      <use xlink:href="#DejaVuSans-63" transform="translate(166.886719 0)"/>
      <use xlink:href="#DejaVuSans-68" transform="translate(221.867188 0)"/>
      <use xlink:href="#DejaVuSans-65" transform="translate(285.246094 0)"/>
      <use xlink:href="#DejaVuSans-72" transform="translate(346.769531 0)"/>
      <use xlink:href="#DejaVuSans-2d" transform="translate(381.507812 0)"/>
      <use xlink:href="#DejaVuSans-74" transform="translate(417.591797 0)"/>
      <use xlink:href="#DejaVuSans-65" transform="translate(456.800781 0)"/>
      <use xlink:href="#DejaVuSans-73" transform="translate(518.324219 0)"/>
      <use xlink:href="#DejaVuSans-74" transform="translate(570.423828 0)"/>
      <use xlink:href="#DejaVuSans-20" transform="translate(609.632812 0)"/>
      <use xlink:href="#DejaVuSans-63" transform="translate(641.419922 0)"/>
      <use xlink:href="#DejaVuSans-6f" transform="translate(696.400391 0)"/>
      <use xlink:href="#DejaVuSans-72" transform="translate(757.582031 0)"/>
      <use xlink:href="#DejaVuSans-72" transform="translate(796.945312 0)"/>
      <use xlink:href="#DejaVuSans-65" transform="translate(835.808594 0)"/>
      <use xlink:href="#DejaVuSans-63" transform="translate(897.332031 0)"/>
      <use xlink:href="#DejaVuSans-74" transform="translate(952.3125 0)"/>
      <use xlink:href="#DejaVuSans-20" transform="translate(991.521484 0)"/>
      <use xlink:href="#DejaVuSans-70" transform="translate(1023.308594 0)"/>
      <use xlink:href="#DejaVuSans-72" transform="translate(1086.785156 0)"/>
      <use xlink:href="#DejaVuSans-65" transform="translate(1125.648438 0)"/>
      <use xlink:href="#DejaVuSans-64" transform="translate(1187.171875 0)"/>
      <use xlink:href="#DejaVuSans-69" transform="translate(1250.648438 0)"/>
      <use xlink:href="#DejaVuSans-63" transform="translate(1278.431641 0)"/>
      <use xlink:href="#DejaVuSans-74" transform="translate(1333.412109 0)"/>
      <use xlink:href="#DejaVuSans-69" transform="translate(1372.621094 0)"/>
      <use xlink:href="#DejaVuSans-6f" transform="translate(1400.404297 0)"/>
      <use xlink:href="#DejaVuSans-6e" transform="translate(1461.585938 0)"/>
      <use xlink:href="#DejaVuSans-73" transform="translate(1524.964844 0)"/>
     </g>
    </g>
   </g>
   <g id="line2d_22">
    <path d="M 67.598648 176.640194
L 124.907455 150.919849
L 182.216261 159.493297
L 239.525068 159.493297
L 296.833875 245.22778
L 354.142682 150.919849
L 468.760295 150.919849
" clip-path="url(#p2a2490ed89)" style="fill: none; stroke: #2e86ab; stroke-width: 2.1; stroke-linecap: square"/>
    <defs>
     <path id="m3b80467910" d="M 0 3
C 0.795609 3 1.55874 2.683901 2.12132 2.12132
C 2.683901 1.55874 3 0.795609 3 0
C 3 -0.795609 2.683901 -1.55874 2.12132 -2.12132
C 1.55874 -2.683901 0.795609 -3 0 -3
C -0.795609 -3 -1.55874 -2.683901 -2.12132 -2.12132
C -2.683901 -1.55874 -3 -0.795609 -3 0
C -3 0.795609 -2.683901 1.55874 -2.12132 2.12132
C -1.55874 2.683901 -0.795609 3 0 3
z
" style="stroke: #2e86ab; stroke-width: 1.6"/>
    </defs>
    <g clip-path="url(#p2a2490ed89)">
     <use xlink:href="#m3b80467910" x="67.598648" y="176.640194" style="fill: #ffffff; stroke: #2e86ab; stroke-width: 1.6"/>
     <use xlink:href="#m3b80467910" x="124.907455" y="150.919849" style="fill: #ffffff; stroke: #2e86ab; stroke-width: 1.6"/>
     <use xlink:href="#m3b80467910" x="182.216261" y="159.493297" style="fill: #ffffff; stroke: #2e86ab; stroke-width: 1.6"/>
     <use xlink:href="#m3b80467910" x="239.525068" y="159.493297" style="fill: #ffffff; stroke: #2e86ab; stroke-width: 1.6"/>
     <use xlink:href="#m3b80467910" x="296.833875" y="245.22778" style="fill: #ffffff; stroke: #2e86ab; stroke-width: 1.6"/>
     <use xlink:href="#m3b80467910" x="354.142682" y="150.919849" style="fill: #ffffff; stroke: #2e86ab; stroke-width: 1.6"/>
     <use xlink:href="#m3b80467910" x="468.760295" y="150.919849" style="fill: #ffffff; stroke: #2e86ab; stroke-width: 1.6"/>
    </g>
   </g>
   <g id="line2d_23">
    <path d="M 44.675125 150.919849
L 548.992625 150.919849
" clip-path="url(#p2a2490ed89)" style="fill: none; stroke-dasharray: 1,1.65; stroke-dashoffset: 0; stroke: #2e7d32"/>
   </g>
   <g id="line2d_24">
    <path d="M 44.675125 56.611918
L 548.992625 56.611918
" clip-path="url(#p2a2490ed89)" style="fill: none; stroke-dasharray: 4.44,1.92; stroke-dashoffset: 0; stroke: #c0392b; stroke-width: 1.2"/>
   </g>
   <g id="patch_3">
    <path d="M 44.675125 270.948125
L 44.675125 22.318125
" style="fill: none; stroke: #000000; stroke-width: 0.8; stroke-linejoin: miter; stroke-linecap: square"/>
   </g>
   <g id="patch_4">
    <path d="M 44.675125 270.948125
L 548.992625 270.948125
" style="fill: none; stroke: #000000; stroke-width: 0.8; stroke-linejoin: miter; stroke-linecap: square"/>
   </g>
   <g id="text_17">
    <!-- 271 -->
    <g style="fill: #17202a" transform="translate(59.581898 168.066746) scale(0.084 -0.084)">
     <use xlink:href="#DejaVuSans-32"/>
     <use xlink:href="#DejaVuSans-37" transform="translate(63.623047 0)"/>
     <use xlink:href="#DejaVuSans-31" transform="translate(127.246094 0)"/>
    </g>
   </g>
   <g id="text_18">
    <!-- 274 -->
    <g style="fill: #17202a" transform="translate(116.890705 142.346401) scale(0.084 -0.084)">
     <use xlink:href="#DejaVuSans-32"/>
     <use xlink:href="#DejaVuSans-37" transform="translate(63.623047 0)"/>
     <use xlink:href="#DejaVuSans-34" transform="translate(127.246094 0)"/>
    </g>
   </g>
   <g id="text_19">
    <!-- 273 -->
    <g style="fill: #17202a" transform="translate(174.199511 150.919849) scale(0.084 -0.084)">
     <use xlink:href="#DejaVuSans-32"/>
     <use xlink:href="#DejaVuSans-37" transform="translate(63.623047 0)"/>
     <use xlink:href="#DejaVuSans-33" transform="translate(127.246094 0)"/>
    </g>
   </g>
   <g id="text_20">
    <!-- 273 -->
    <g style="fill: #17202a" transform="translate(231.508318 150.919849) scale(0.084 -0.084)">
     <use xlink:href="#DejaVuSans-32"/>
     <use xlink:href="#DejaVuSans-37" transform="translate(63.623047 0)"/>
     <use xlink:href="#DejaVuSans-33" transform="translate(127.246094 0)"/>
    </g>
   </g>
   <g id="text_21">
    <!-- 263 -->
    <g style="fill: #17202a" transform="translate(288.817125 238.369022) scale(0.084 -0.084)">
     <use xlink:href="#DejaVuSans-32"/>
     <use xlink:href="#DejaVuSans-36" transform="translate(63.623047 0)"/>
     <use xlink:href="#DejaVuSans-33" transform="translate(127.246094 0)"/>
    </g>
   </g>
   <g id="text_22">
    <!-- 274 -->
    <g style="fill: #17202a" transform="translate(346.125932 142.346401) scale(0.084 -0.084)">
     <use xlink:href="#DejaVuSans-32"/>
     <use xlink:href="#DejaVuSans-37" transform="translate(63.623047 0)"/>
     <use xlink:href="#DejaVuSans-34" transform="translate(127.246094 0)"/>
    </g>
   </g>
   <g id="text_23">
    <!-- 274 -->
    <g style="fill: #17202a" transform="translate(460.743545 142.346401) scale(0.084 -0.084)">
     <use xlink:href="#DejaVuSans-32"/>
     <use xlink:href="#DejaVuSans-37" transform="translate(63.623047 0)"/>
     <use xlink:href="#DejaVuSans-34" transform="translate(127.246094 0)"/>
    </g>
   </g>
   <g id="patch_5">
    <path d="M 318.88655 250.40911
Q 308.833362 248.047089 298.780174 245.685068
" style="fill: none; stroke: #5d6d7e; stroke-width: 0.8; stroke-linecap: round"/>
   </g>
   <g id="text_24">
    <!-- unsafe FP drift -->
    <g style="fill: #5d6d7e" transform="translate(316.891957 258.945297) scale(0.08 -0.08)">
     <defs>
      <path id="DejaVuSans-46" d="M 628 4666
L 3309 4666
L 3309 4134
L 1259 4134
L 1259 2759
L 3109 2759
L 3109 2228
L 1259 2228
L 1259 0
L 628 0
L 628 4666
z
" transform="scale(0.015625)"/>
      <path id="DejaVuSans-50" d="M 1259 4147
L 1259 2394
L 2053 2394
Q 2494 2394 2734 2622
Q 2975 2850 2975 3272
Q 2975 3691 2734 3919
Q 2494 4147 2053 4147
L 1259 4147
z
M 628 4666
L 2053 4666
Q 2838 4666 3239 4311
Q 3641 3956 3641 3272
Q 3641 2581 3239 2228
Q 2838 1875 2053 1875
L 1259 1875
L 1259 0
L 628 0
L 628 4666
z
" transform="scale(0.015625)"/>
     </defs>
     <use xlink:href="#DejaVuSans-75"/>
     <use xlink:href="#DejaVuSans-6e" transform="translate(63.378906 0)"/>
     <use xlink:href="#DejaVuSans-73" transform="translate(126.757812 0)"/>
     <use xlink:href="#DejaVuSans-61" transform="translate(178.857422 0)"/>
     <use xlink:href="#DejaVuSans-66" transform="translate(240.136719 0)"/>
     <use xlink:href="#DejaVuSans-65" transform="translate(275.341797 0)"/>
     <use xlink:href="#DejaVuSans-20" transform="translate(336.865234 0)"/>
     <use xlink:href="#DejaVuSans-46" transform="translate(368.652344 0)"/>
     <use xlink:href="#DejaVuSans-50" transform="translate(426.171875 0)"/>
     <use xlink:href="#DejaVuSans-20" transform="translate(486.474609 0)"/>
     <use xlink:href="#DejaVuSans-64" transform="translate(518.261719 0)"/>
     <use xlink:href="#DejaVuSans-72" transform="translate(581.738281 0)"/>
     <use xlink:href="#DejaVuSans-69" transform="translate(622.851562 0)"/>
     <use xlink:href="#DejaVuSans-66" transform="translate(650.634766 0)"/>
     <use xlink:href="#DejaVuSans-74" transform="translate(684.089844 0)"/>
    </g>
   </g>
   <g id="patch_6">
    <path d="M 379.918013 138.314884
Q 367.928645 144.17807 355.939278 150.041256
" style="fill: none; stroke: #5d6d7e; stroke-width: 0.8; stroke-linecap: round"/>
   </g>
   <g id="text_25">
    <!-- safe no-op -->
    <g style="fill: #5d6d7e" transform="translate(372.4815 133.772953) scale(0.08 -0.08)">
     <use xlink:href="#DejaVuSans-73"/>
     <use xlink:href="#DejaVuSans-61" transform="translate(52.099609 0)"/>
     <use xlink:href="#DejaVuSans-66" transform="translate(113.378906 0)"/>
     <use xlink:href="#DejaVuSans-65" transform="translate(148.583984 0)"/>
     <use xlink:href="#DejaVuSans-20" transform="translate(210.107422 0)"/>
     <use xlink:href="#DejaVuSans-6e" transform="translate(241.894531 0)"/>
     <use xlink:href="#DejaVuSans-6f" transform="translate(305.273438 0)"/>
     <use xlink:href="#DejaVuSans-2d" transform="translate(368.330078 0)"/>
     <use xlink:href="#DejaVuSans-6f" transform="translate(406.289062 0)"/>
     <use xlink:href="#DejaVuSans-70" transform="translate(467.470703 0)"/>
    </g>
   </g>
   <g id="patch_7">
    <path d="M 487.867564 138.524457
Q 479.152438 144.17819 470.437313 149.831923
" style="fill: none; stroke: #5d6d7e; stroke-width: 0.8; stroke-linecap: round"/>
   </g>
   <g id="text_26">
    <!-- safe no-op -->
    <g style="fill: #5d6d7e" transform="translate(477.356616 133.772953) scale(0.08 -0.08)">
     <use xlink:href="#DejaVuSans-73"/>
     <use xlink:href="#DejaVuSans-61" transform="translate(52.099609 0)"/>
     <use xlink:href="#DejaVuSans-66" transform="translate(113.378906 0)"/>
     <use xlink:href="#DejaVuSans-65" transform="translate(148.583984 0)"/>
     <use xlink:href="#DejaVuSans-20" transform="translate(210.107422 0)"/>
     <use xlink:href="#DejaVuSans-6e" transform="translate(241.894531 0)"/>
     <use xlink:href="#DejaVuSans-6f" transform="translate(305.273438 0)"/>
     <use xlink:href="#DejaVuSans-2d" transform="translate(368.330078 0)"/>
     <use xlink:href="#DejaVuSans-6f" transform="translate(406.289062 0)"/>
     <use xlink:href="#DejaVuSans-70" transform="translate(467.470703 0)"/>
    </g>
   </g>
   <g id="text_27">
    <!-- Eight-round optimization trajectory -->
    <g transform="translate(191.492625 16.318125) scale(0.12 -0.12)">
     <defs>
      <path id="DejaVuSans-45" d="M 628 4666
L 3578 4666
L 3578 4134
L 1259 4134
L 1259 2753
L 3481 2753
L 3481 2222
L 1259 2222
L 1259 531
L 3634 531
L 3634 0
L 628 0
L 628 4666
z
" transform="scale(0.015625)"/>
      <path id="DejaVuSans-6d" d="M 3328 2828
Q 3544 3216 3844 3400
Q 4144 3584 4550 3584
Q 5097 3584 5394 3201
Q 5691 2819 5691 2113
L 5691 0
L 5113 0
L 5113 2094
Q 5113 2597 4934 2840
Q 4756 3084 4391 3084
Q 3944 3084 3684 2787
Q 3425 2491 3425 1978
L 3425 0
L 2847 0
L 2847 2094
Q 2847 2600 2669 2842
Q 2491 3084 2119 3084
Q 1678 3084 1418 2786
Q 1159 2488 1159 1978
L 1159 0
L 581 0
L 581 3500
L 1159 3500
L 1159 2956
Q 1356 3278 1631 3431
Q 1906 3584 2284 3584
Q 2666 3584 2933 3390
Q 3200 3197 3328 2828
z
" transform="scale(0.015625)"/>
      <path id="DejaVuSans-7a" d="M 353 3500
L 3084 3500
L 3084 2975
L 922 459
L 3084 459
L 3084 0
L 275 0
L 275 525
L 2438 3041
L 353 3041
L 353 3500
z
" transform="scale(0.015625)"/>
      <path id="DejaVuSans-6a" d="M 603 3500
L 1178 3500
L 1178 -63
Q 1178 -731 923 -1031
Q 669 -1331 103 -1331
L -116 -1331
L -116 -844
L 38 -844
Q 366 -844 484 -692
Q 603 -541 603 -63
L 603 3500
z
M 603 4863
L 1178 4863
L 1178 4134
L 603 4134
L 603 4863
z
" transform="scale(0.015625)"/>
      <path id="DejaVuSans-79" d="M 2059 -325
Q 1816 -950 1584 -1140
Q 1353 -1331 966 -1331
L 506 -1331
L 506 -850
L 844 -850
Q 1081 -850 1212 -737
Q 1344 -625 1503 -206
L 1606 56
L 191 3500
L 800 3500
L 1894 763
L 2988 3500
L 3597 3500
L 2059 -325
z
" transform="scale(0.015625)"/>
     </defs>
     <use xlink:href="#DejaVuSans-45"/>
     <use xlink:href="#DejaVuSans-69" transform="translate(63.183594 0)"/>
     <use xlink:href="#DejaVuSans-67" transform="translate(90.966797 0)"/>
     <use xlink:href="#DejaVuSans-68" transform="translate(154.443359 0)"/>
     <use xlink:href="#DejaVuSans-74" transform="translate(217.822266 0)"/>
     <use xlink:href="#DejaVuSans-2d" transform="translate(257.03125 0)"/>
     <use xlink:href="#DejaVuSans-72" transform="translate(293.115234 0)"/>
     <use xlink:href="#DejaVuSans-6f" transform="translate(331.978516 0)"/>
     <use xlink:href="#DejaVuSans-75" transform="translate(393.160156 0)"/>
     <use xlink:href="#DejaVuSans-6e" transform="translate(456.539062 0)"/>
     <use xlink:href="#DejaVuSans-64" transform="translate(519.917969 0)"/>
     <use xlink:href="#DejaVuSans-20" transform="translate(583.394531 0)"/>
     <use xlink:href="#DejaVuSans-6f" transform="translate(615.181641 0)"/>
     <use xlink:href="#DejaVuSans-70" transform="translate(676.363281 0)"/>
     <use xlink:href="#DejaVuSans-74" transform="translate(739.839844 0)"/>
     <use xlink:href="#DejaVuSans-69" transform="translate(779.048828 0)"/>
     <use xlink:href="#DejaVuSans-6d" transform="translate(806.832031 0)"/>
     <use xlink:href="#DejaVuSans-69" transform="translate(904.244141 0)"/>
     <use xlink:href="#DejaVuSans-7a" transform="translate(932.027344 0)"/>
     <use xlink:href="#DejaVuSans-61" transform="translate(984.517578 0)"/>
     <use xlink:href="#DejaVuSans-74" transform="translate(1045.796875 0)"/>
     <use xlink:href="#DejaVuSans-69" transform="translate(1085.005859 0)"/>
     <use xlink:href="#DejaVuSans-6f" transform="translate(1112.789062 0)"/>
     <use xlink:href="#DejaVuSans-6e" transform="translate(1173.970703 0)"/>
     <use xlink:href="#DejaVuSans-20" transform="translate(1237.349609 0)"/>
     <use xlink:href="#DejaVuSans-74" transform="translate(1269.136719 0)"/>
     <use xlink:href="#DejaVuSans-72" transform="translate(1308.345703 0)"/>
     <use xlink:href="#DejaVuSans-61" transform="translate(1349.458984 0)"/>
     <use xlink:href="#DejaVuSans-6a" transform="translate(1410.738281 0)"/>
     <use xlink:href="#DejaVuSans-65" transform="translate(1438.521484 0)"/>
     <use xlink:href="#DejaVuSans-63" transform="translate(1500.044922 0)"/>
     <use xlink:href="#DejaVuSans-74" transform="translate(1555.025391 0)"/>
     <use xlink:href="#DejaVuSans-6f" transform="translate(1594.234375 0)"/>
     <use xlink:href="#DejaVuSans-72" transform="translate(1655.416016 0)"/>
     <use xlink:href="#DejaVuSans-79" transform="translate(1696.529297 0)"/>
    </g>
   </g>
   <g id="PathCollection_1">
    <defs>
     <path id="m594fb1a30d" d="M -3.807887 3.807887
L 3.807887 -3.807887
M -3.807887 -3.807887
L 3.807887 3.807887
" style="stroke: #c0392b; stroke-width: 1.5"/>
    </defs>
    <g clip-path="url(#p2a2490ed89)">
     <use xlink:href="#m594fb1a30d" x="411.451489" y="202.360539" style="fill: #c0392b; stroke: #c0392b; stroke-width: 1.5"/>
     <use xlink:href="#m594fb1a30d" x="526.069102" y="202.360539" style="fill: #c0392b; stroke: #c0392b; stroke-width: 1.5"/>
    </g>
   </g>
   <g id="legend_1">
    <g id="PathCollection_2">
     <g>
      <use xlink:href="#m594fb1a30d" x="60.825125" y="34.195547" style="fill: #c0392b; stroke: #c0392b; stroke-width: 1.5"/>
     </g>
    </g>
    <g id="text_28">
     <!-- No teacher-test diagnostic -->
     <g transform="translate(76.125125 36.426797) scale(0.085 -0.085)">
      <defs>
       <path id="DejaVuSans-4e" d="M 628 4666
L 1478 4666
L 3547 763
L 3547 4666
L 4159 4666
L 4159 0
L 3309 0
L 1241 3903
L 1241 0
L 628 0
L 628 4666
z
" transform="scale(0.015625)"/>
      </defs>
      <use xlink:href="#DejaVuSans-4e"/>
      <use xlink:href="#DejaVuSans-6f" transform="translate(74.804688 0)"/>
      <use xlink:href="#DejaVuSans-20" transform="translate(135.986328 0)"/>
      <use xlink:href="#DejaVuSans-74" transform="translate(167.773438 0)"/>
      <use xlink:href="#DejaVuSans-65" transform="translate(206.982422 0)"/>
      <use xlink:href="#DejaVuSans-61" transform="translate(268.505859 0)"/>
      <use xlink:href="#DejaVuSans-63" transform="translate(329.785156 0)"/>
      <use xlink:href="#DejaVuSans-68" transform="translate(384.765625 0)"/>
      <use xlink:href="#DejaVuSans-65" transform="translate(448.144531 0)"/>
      <use xlink:href="#DejaVuSans-72" transform="translate(509.667969 0)"/>
      <use xlink:href="#DejaVuSans-2d" transform="translate(544.40625 0)"/>
      <use xlink:href="#DejaVuSans-74" transform="translate(580.490234 0)"/>
      <use xlink:href="#DejaVuSans-65" transform="translate(619.699219 0)"/>
      <use xlink:href="#DejaVuSans-73" transform="translate(681.222656 0)"/>
      <use xlink:href="#DejaVuSans-74" transform="translate(733.322266 0)"/>
      <use xlink:href="#DejaVuSans-20" transform="translate(772.53125 0)"/>
      <use xlink:href="#DejaVuSans-64" transform="translate(804.318359 0)"/>
      <use xlink:href="#DejaVuSans-69" transform="translate(867.794922 0)"/>
      <use xlink:href="#DejaVuSans-61" transform="translate(895.578125 0)"/>
      <use xlink:href="#DejaVuSans-67" transform="translate(956.857422 0)"/>
      <use xlink:href="#DejaVuSans-6e" transform="translate(1020.333984 0)"/>
      <use xlink:href="#DejaVuSans-6f" transform="translate(1083.712891 0)"/>
      <use xlink:href="#DejaVuSans-73" transform="translate(1144.894531 0)"/>
      <use xlink:href="#DejaVuSans-74" transform="translate(1196.994141 0)"/>
      <use xlink:href="#DejaVuSans-69" transform="translate(1236.203125 0)"/>
      <use xlink:href="#DejaVuSans-63" transform="translate(1263.986328 0)"/>
     </g>
    </g>
    <g id="line2d_25">
     <path d="M 52.325125 45.928203
L 60.825125 45.928203
L 69.325125 45.928203
" style="fill: none; stroke-dasharray: 1,1.65; stroke-dashoffset: 0; stroke: #2e7d32"/>
    </g>
    <g id="text_29">
     <!-- Step7 baseline -->
     <g transform="translate(76.125125 48.903203) scale(0.085 -0.085)">
      <use xlink:href="#DejaVuSans-53"/>
      <use xlink:href="#DejaVuSans-74" transform="translate(63.476562 0)"/>
      <use xlink:href="#DejaVuSans-65" transform="translate(102.685547 0)"/>
      <use xlink:href="#DejaVuSans-70" transform="translate(164.208984 0)"/>
      <use xlink:href="#DejaVuSans-37" transform="translate(227.685547 0)"/>
      <use xlink:href="#DejaVuSans-20" transform="translate(291.308594 0)"/>
      <use xlink:href="#DejaVuSans-62" transform="translate(323.095703 0)"/>
      <use xlink:href="#DejaVuSans-61" transform="translate(386.572266 0)"/>
      <use xlink:href="#DejaVuSans-73" transform="translate(447.851562 0)"/>
      <use xlink:href="#DejaVuSans-65" transform="translate(499.951172 0)"/>
      <use xlink:href="#DejaVuSans-6c" transform="translate(561.474609 0)"/>
      <use xlink:href="#DejaVuSans-69" transform="translate(589.257812 0)"/>
      <use xlink:href="#DejaVuSans-6e" transform="translate(617.041016 0)"/>
      <use xlink:href="#DejaVuSans-65" transform="translate(680.419922 0)"/>
     </g>
    </g>
    <g id="line2d_26">
     <path d="M 205.237469 33.451797
L 213.737469 33.451797
L 222.237469 33.451797
" style="fill: none; stroke-dasharray: 4.44,1.92; stroke-dashoffset: 0; stroke: #c0392b; stroke-width: 1.2"/>
    </g>
    <g id="text_30">
     <!-- 95% target -->
     <g transform="translate(229.037469 36.426797) scale(0.085 -0.085)">
      <defs>
       <path id="DejaVuSans-39" d="M 703 97
L 703 672
Q 941 559 1184 500
Q 1428 441 1663 441
Q 2288 441 2617 861
Q 2947 1281 2994 2138
Q 2813 1869 2534 1725
Q 2256 1581 1919 1581
Q 1219 1581 811 2004
Q 403 2428 403 3163
Q 403 3881 828 4315
Q 1253 4750 1959 4750
Q 2769 4750 3195 4129
Q 3622 3509 3622 2328
Q 3622 1225 3098 567
Q 2575 -91 1691 -91
Q 1453 -91 1209 -44
Q 966 3 703 97
z
M 1959 2075
Q 2384 2075 2632 2365
Q 2881 2656 2881 3163
Q 2881 3666 2632 3958
Q 2384 4250 1959 4250
Q 1534 4250 1286 3958
Q 1038 3666 1038 3163
Q 1038 2656 1286 2365
Q 1534 2075 1959 2075
z
" transform="scale(0.015625)"/>
       <path id="DejaVuSans-25" d="M 4653 2053
Q 4381 2053 4226 1822
Q 4072 1591 4072 1178
Q 4072 772 4226 539
Q 4381 306 4653 306
Q 4919 306 5073 539
Q 5228 772 5228 1178
Q 5228 1588 5073 1820
Q 4919 2053 4653 2053
z
M 4653 2450
Q 5147 2450 5437 2106
Q 5728 1763 5728 1178
Q 5728 594 5436 251
Q 5144 -91 4653 -91
Q 4153 -91 3862 251
Q 3572 594 3572 1178
Q 3572 1766 3864 2108
Q 4156 2450 4653 2450
z
M 1428 4353
Q 1159 4353 1004 4120
Q 850 3888 850 3481
Q 850 3069 1003 2837
Q 1156 2606 1428 2606
Q 1700 2606 1854 2837
Q 2009 3069 2009 3481
Q 2009 3884 1853 4118
Q 1697 4353 1428 4353
z
M 4250 4750
L 4750 4750
L 1831 -91
L 1331 -91
L 4250 4750
z
M 1428 4750
Q 1922 4750 2215 4408
Q 2509 4066 2509 3481
Q 2509 2891 2217 2550
Q 1925 2209 1428 2209
Q 931 2209 642 2551
Q 353 2894 353 3481
Q 353 4063 643 4406
Q 934 4750 1428 4750
z
" transform="scale(0.015625)"/>
      </defs>
      <use xlink:href="#DejaVuSans-39"/>
      <use xlink:href="#DejaVuSans-35" transform="translate(63.623047 0)"/>
      <use xlink:href="#DejaVuSans-25" transform="translate(127.246094 0)"/>
      <use xlink:href="#DejaVuSans-20" transform="translate(222.265625 0)"/>
      <use xlink:href="#DejaVuSans-74" transform="translate(254.052734 0)"/>
      <use xlink:href="#DejaVuSans-61" transform="translate(293.261719 0)"/>
      <use xlink:href="#DejaVuSans-72" transform="translate(354.541016 0)"/>
      <use xlink:href="#DejaVuSans-67" transform="translate(393.904297 0)"/>
      <use xlink:href="#DejaVuSans-65" transform="translate(457.380859 0)"/>
      <use xlink:href="#DejaVuSans-74" transform="translate(518.904297 0)"/>
     </g>
    </g>
   </g>
  </g>
 </g>
 <defs>
  <clipPath id="p2a2490ed89">
   <rect x="44.675125" y="22.318125" width="504.3175" height="248.63"/>
  </clipPath>
 </defs>
</svg>
